<mxfile host="app.diagrams.net" modified="2023-05-16T16:44:29.030Z" agent="Mozilla/5.0 (X11; Linux x86_64; rv:112.0) Gecko/20100101 Firefox/112.0" etag="U1OMdiKyBzimYikZWxHw" version="21.2.9">
  <diagram name="Page-1" id="FhRvc1_ORulj2T8msQC-">
    <mxGraphModel dx="1683" dy="1024" grid="1" gridSize="10" guides="1" tooltips="1" connect="1" arrows="1" fold="1" page="1" pageScale="1" pageWidth="850" pageHeight="1100" math="0" shadow="0">
      <root>
        <mxCell id="0" />
        <mxCell id="1" parent="0" />
        <mxCell id="gCvPAoLcpIH9JKcBM7v3-1" value="Tamagochi" style="swimlane;childLayout=stackLayout;resizeParent=1;resizeParentMax=0;horizontal=1;startSize=20;horizontalStack=0;html=1;" parent="1" vertex="1">
          <mxGeometry x="180" y="110" width="2170" height="700" as="geometry" />
        </mxCell>
        <mxCell id="gCvPAoLcpIH9JKcBM7v3-2" value="Parent" style="swimlane;startSize=20;horizontal=0;html=1;" parent="gCvPAoLcpIH9JKcBM7v3-1" vertex="1">
          <mxGeometry y="20" width="2170" height="320" as="geometry" />
        </mxCell>
        <mxCell id="gCvPAoLcpIH9JKcBM7v3-5" value="Start" style="ellipse;whiteSpace=wrap;html=1;aspect=fixed;fillColor=#d5e8d4;strokeColor=#82b366;" parent="gCvPAoLcpIH9JKcBM7v3-2" vertex="1">
          <mxGeometry x="40" y="120" width="40" height="40" as="geometry" />
        </mxCell>
        <mxCell id="gCvPAoLcpIH9JKcBM7v3-8" value="&lt;font style=&quot;font-size: 18px;&quot;&gt;&lt;b&gt;X&lt;/b&gt;&lt;/font&gt;" style="rhombus;whiteSpace=wrap;html=1;" parent="gCvPAoLcpIH9JKcBM7v3-2" vertex="1">
          <mxGeometry x="140" y="120" width="40" height="40" as="geometry" />
        </mxCell>
        <mxCell id="gCvPAoLcpIH9JKcBM7v3-10" value="" style="endArrow=classic;html=1;rounded=0;exitX=1;exitY=0.5;exitDx=0;exitDy=0;entryX=0;entryY=0.5;entryDx=0;entryDy=0;" parent="gCvPAoLcpIH9JKcBM7v3-2" source="gCvPAoLcpIH9JKcBM7v3-5" target="gCvPAoLcpIH9JKcBM7v3-8" edge="1">
          <mxGeometry width="50" height="50" relative="1" as="geometry">
            <mxPoint x="210" y="130" as="sourcePoint" />
            <mxPoint x="260" y="80" as="targetPoint" />
          </mxGeometry>
        </mxCell>
        <mxCell id="gCvPAoLcpIH9JKcBM7v3-12" value="Sign-up" style="rounded=0;whiteSpace=wrap;html=1;" parent="gCvPAoLcpIH9JKcBM7v3-2" vertex="1">
          <mxGeometry x="180" y="180" width="70" height="40" as="geometry" />
        </mxCell>
        <mxCell id="gCvPAoLcpIH9JKcBM7v3-11" value="Login" style="rounded=0;whiteSpace=wrap;html=1;" parent="gCvPAoLcpIH9JKcBM7v3-2" vertex="1">
          <mxGeometry x="180" y="60" width="70" height="40" as="geometry" />
        </mxCell>
        <mxCell id="gCvPAoLcpIH9JKcBM7v3-13" value="" style="endArrow=classic;html=1;rounded=0;exitX=0.5;exitY=0;exitDx=0;exitDy=0;entryX=0;entryY=0.5;entryDx=0;entryDy=0;" parent="gCvPAoLcpIH9JKcBM7v3-2" source="gCvPAoLcpIH9JKcBM7v3-8" target="gCvPAoLcpIH9JKcBM7v3-11" edge="1">
          <mxGeometry width="50" height="50" relative="1" as="geometry">
            <mxPoint x="280" y="200" as="sourcePoint" />
            <mxPoint x="330" y="150" as="targetPoint" />
            <Array as="points">
              <mxPoint x="160" y="80" />
            </Array>
          </mxGeometry>
        </mxCell>
        <mxCell id="gCvPAoLcpIH9JKcBM7v3-14" value="" style="endArrow=classic;html=1;rounded=0;exitX=0.5;exitY=1;exitDx=0;exitDy=0;entryX=0;entryY=0.5;entryDx=0;entryDy=0;" parent="gCvPAoLcpIH9JKcBM7v3-2" source="gCvPAoLcpIH9JKcBM7v3-8" target="gCvPAoLcpIH9JKcBM7v3-12" edge="1">
          <mxGeometry width="50" height="50" relative="1" as="geometry">
            <mxPoint x="220" y="170" as="sourcePoint" />
            <mxPoint x="270" y="120" as="targetPoint" />
            <Array as="points">
              <mxPoint x="160" y="200" />
            </Array>
          </mxGeometry>
        </mxCell>
        <mxCell id="gCvPAoLcpIH9JKcBM7v3-35" value="End" style="ellipse;whiteSpace=wrap;html=1;aspect=fixed;fillColor=#f8cecc;strokeColor=#b85450;" parent="gCvPAoLcpIH9JKcBM7v3-2" vertex="1">
          <mxGeometry x="920" y="120" width="40" height="40" as="geometry" />
        </mxCell>
        <mxCell id="gCvPAoLcpIH9JKcBM7v3-41" value="Start" style="ellipse;whiteSpace=wrap;html=1;aspect=fixed;fillColor=#d5e8d4;strokeColor=#82b366;" parent="gCvPAoLcpIH9JKcBM7v3-2" vertex="1">
          <mxGeometry x="1020" y="120" width="40" height="40" as="geometry" />
        </mxCell>
        <mxCell id="gCvPAoLcpIH9JKcBM7v3-42" value="" style="endArrow=none;dashed=1;html=1;dashPattern=1 3;strokeWidth=2;rounded=0;exitX=1;exitY=0.5;exitDx=0;exitDy=0;entryX=0;entryY=0.5;entryDx=0;entryDy=0;" parent="gCvPAoLcpIH9JKcBM7v3-2" source="gCvPAoLcpIH9JKcBM7v3-35" target="gCvPAoLcpIH9JKcBM7v3-41" edge="1">
          <mxGeometry width="50" height="50" relative="1" as="geometry">
            <mxPoint x="1080" y="180" as="sourcePoint" />
            <mxPoint x="1130" y="130" as="targetPoint" />
          </mxGeometry>
        </mxCell>
        <mxCell id="gCvPAoLcpIH9JKcBM7v3-44" value="&lt;font style=&quot;font-size: 18px;&quot;&gt;&lt;b&gt;X&lt;/b&gt;&lt;/font&gt;" style="rhombus;whiteSpace=wrap;html=1;" parent="gCvPAoLcpIH9JKcBM7v3-2" vertex="1">
          <mxGeometry x="1110" y="120" width="40" height="40" as="geometry" />
        </mxCell>
        <mxCell id="gCvPAoLcpIH9JKcBM7v3-43" value="" style="endArrow=classic;html=1;rounded=0;exitX=1;exitY=0.5;exitDx=0;exitDy=0;entryX=0;entryY=0.5;entryDx=0;entryDy=0;" parent="gCvPAoLcpIH9JKcBM7v3-2" source="gCvPAoLcpIH9JKcBM7v3-41" target="gCvPAoLcpIH9JKcBM7v3-44" edge="1">
          <mxGeometry width="50" height="50" relative="1" as="geometry">
            <mxPoint x="1260" y="190" as="sourcePoint" />
            <mxPoint x="1110" y="120" as="targetPoint" />
          </mxGeometry>
        </mxCell>
        <mxCell id="gCvPAoLcpIH9JKcBM7v3-46" value="Manage Child" style="rounded=0;whiteSpace=wrap;html=1;" parent="gCvPAoLcpIH9JKcBM7v3-2" vertex="1">
          <mxGeometry x="1180" y="90" width="70" height="40" as="geometry" />
        </mxCell>
        <mxCell id="gCvPAoLcpIH9JKcBM7v3-45" value="" style="endArrow=classic;html=1;rounded=0;exitX=0.5;exitY=0;exitDx=0;exitDy=0;entryX=0;entryY=0.5;entryDx=0;entryDy=0;" parent="gCvPAoLcpIH9JKcBM7v3-2" source="gCvPAoLcpIH9JKcBM7v3-44" target="gCvPAoLcpIH9JKcBM7v3-53" edge="1">
          <mxGeometry width="50" height="50" relative="1" as="geometry">
            <mxPoint x="1290" y="150" as="sourcePoint" />
            <mxPoint x="1170" y="50" as="targetPoint" />
            <Array as="points">
              <mxPoint x="1130" y="50" />
            </Array>
          </mxGeometry>
        </mxCell>
        <mxCell id="gCvPAoLcpIH9JKcBM7v3-47" value="Open Options" style="rounded=0;whiteSpace=wrap;html=1;" parent="gCvPAoLcpIH9JKcBM7v3-2" vertex="1">
          <mxGeometry x="1180" y="160" width="70" height="40" as="geometry" />
        </mxCell>
        <mxCell id="gCvPAoLcpIH9JKcBM7v3-48" value="Logout" style="rounded=0;whiteSpace=wrap;html=1;" parent="gCvPAoLcpIH9JKcBM7v3-2" vertex="1">
          <mxGeometry x="1180" y="220" width="70" height="40" as="geometry" />
        </mxCell>
        <mxCell id="gCvPAoLcpIH9JKcBM7v3-49" value="" style="endArrow=classic;html=1;rounded=0;exitX=1;exitY=1;exitDx=0;exitDy=0;entryX=0;entryY=0.5;entryDx=0;entryDy=0;" parent="gCvPAoLcpIH9JKcBM7v3-2" source="gCvPAoLcpIH9JKcBM7v3-44" target="gCvPAoLcpIH9JKcBM7v3-47" edge="1">
          <mxGeometry width="50" height="50" relative="1" as="geometry">
            <mxPoint x="1240" y="210" as="sourcePoint" />
            <mxPoint x="1290" y="160" as="targetPoint" />
            <Array as="points">
              <mxPoint x="1140" y="180" />
            </Array>
          </mxGeometry>
        </mxCell>
        <mxCell id="gCvPAoLcpIH9JKcBM7v3-50" value="" style="endArrow=classic;html=1;rounded=0;exitX=0.5;exitY=1;exitDx=0;exitDy=0;entryX=0;entryY=0.5;entryDx=0;entryDy=0;" parent="gCvPAoLcpIH9JKcBM7v3-2" source="gCvPAoLcpIH9JKcBM7v3-44" target="gCvPAoLcpIH9JKcBM7v3-48" edge="1">
          <mxGeometry width="50" height="50" relative="1" as="geometry">
            <mxPoint x="1240" y="210" as="sourcePoint" />
            <mxPoint x="1290" y="160" as="targetPoint" />
            <Array as="points">
              <mxPoint x="1130" y="240" />
            </Array>
          </mxGeometry>
        </mxCell>
        <mxCell id="gCvPAoLcpIH9JKcBM7v3-53" value="Create Child" style="rounded=0;whiteSpace=wrap;html=1;" parent="gCvPAoLcpIH9JKcBM7v3-2" vertex="1">
          <mxGeometry x="1180" y="30" width="70" height="40" as="geometry" />
        </mxCell>
        <mxCell id="gCvPAoLcpIH9JKcBM7v3-54" value="" style="endArrow=classic;html=1;rounded=0;exitX=1;exitY=0;exitDx=0;exitDy=0;entryX=0;entryY=0.25;entryDx=0;entryDy=0;" parent="gCvPAoLcpIH9JKcBM7v3-2" source="gCvPAoLcpIH9JKcBM7v3-44" target="gCvPAoLcpIH9JKcBM7v3-46" edge="1">
          <mxGeometry width="50" height="50" relative="1" as="geometry">
            <mxPoint x="1230" y="170" as="sourcePoint" />
            <mxPoint x="1160" y="100" as="targetPoint" />
            <Array as="points">
              <mxPoint x="1140" y="100" />
            </Array>
          </mxGeometry>
        </mxCell>
        <mxCell id="Nq8rvVR_f5ThodNihjhF-9" value="&lt;font style=&quot;font-size: 18px;&quot;&gt;&lt;b&gt;X&lt;/b&gt;&lt;/font&gt;" style="rhombus;whiteSpace=wrap;html=1;" vertex="1" parent="gCvPAoLcpIH9JKcBM7v3-2">
          <mxGeometry x="1500" y="260" width="40" height="40" as="geometry" />
        </mxCell>
        <mxCell id="Nq8rvVR_f5ThodNihjhF-13" value="Manage Tasks" style="rounded=0;whiteSpace=wrap;html=1;" vertex="1" parent="gCvPAoLcpIH9JKcBM7v3-2">
          <mxGeometry x="1560" y="90" width="70" height="40" as="geometry" />
        </mxCell>
        <mxCell id="Nq8rvVR_f5ThodNihjhF-12" value="Edit Child fields" style="rounded=0;whiteSpace=wrap;html=1;" vertex="1" parent="gCvPAoLcpIH9JKcBM7v3-2">
          <mxGeometry x="1560" y="210" width="70" height="40" as="geometry" />
        </mxCell>
        <mxCell id="Nq8rvVR_f5ThodNihjhF-18" value="" style="endArrow=classic;html=1;rounded=0;exitX=1;exitY=0;exitDx=0;exitDy=0;entryX=-0.039;entryY=0.524;entryDx=0;entryDy=0;entryPerimeter=0;" edge="1" parent="gCvPAoLcpIH9JKcBM7v3-2" source="Nq8rvVR_f5ThodNihjhF-9" target="Nq8rvVR_f5ThodNihjhF-12">
          <mxGeometry width="50" height="50" relative="1" as="geometry">
            <mxPoint x="1480" y="240" as="sourcePoint" />
            <mxPoint x="1530" y="190" as="targetPoint" />
            <Array as="points">
              <mxPoint x="1530" y="231" />
            </Array>
          </mxGeometry>
        </mxCell>
        <mxCell id="Nq8rvVR_f5ThodNihjhF-19" value="" style="endArrow=classic;html=1;rounded=0;exitX=0;exitY=0;exitDx=0;exitDy=0;entryX=0;entryY=0.5;entryDx=0;entryDy=0;" edge="1" parent="gCvPAoLcpIH9JKcBM7v3-2" source="Nq8rvVR_f5ThodNihjhF-9" target="Nq8rvVR_f5ThodNihjhF-13">
          <mxGeometry width="50" height="50" relative="1" as="geometry">
            <mxPoint x="1420" y="210" as="sourcePoint" />
            <mxPoint x="1470" y="160" as="targetPoint" />
            <Array as="points">
              <mxPoint x="1510" y="110" />
            </Array>
          </mxGeometry>
        </mxCell>
        <mxCell id="Nq8rvVR_f5ThodNihjhF-28" value="Delete Child" style="rounded=0;whiteSpace=wrap;html=1;" vertex="1" parent="gCvPAoLcpIH9JKcBM7v3-2">
          <mxGeometry x="1560" y="150" width="70" height="40" as="geometry" />
        </mxCell>
        <mxCell id="Nq8rvVR_f5ThodNihjhF-30" value="" style="endArrow=classic;html=1;rounded=0;entryX=0;entryY=0.5;entryDx=0;entryDy=0;exitX=0.5;exitY=0;exitDx=0;exitDy=0;" edge="1" parent="gCvPAoLcpIH9JKcBM7v3-2" source="Nq8rvVR_f5ThodNihjhF-9" target="Nq8rvVR_f5ThodNihjhF-28">
          <mxGeometry width="50" height="50" relative="1" as="geometry">
            <mxPoint x="1500" y="350" as="sourcePoint" />
            <mxPoint x="1550" y="300" as="targetPoint" />
            <Array as="points">
              <mxPoint x="1520" y="170" />
            </Array>
          </mxGeometry>
        </mxCell>
        <mxCell id="Nq8rvVR_f5ThodNihjhF-33" value="&lt;font style=&quot;font-size: 18px;&quot;&gt;&lt;b&gt;X&lt;/b&gt;&lt;/font&gt;" style="rhombus;whiteSpace=wrap;html=1;" vertex="1" parent="gCvPAoLcpIH9JKcBM7v3-2">
          <mxGeometry x="1780" y="90" width="40" height="40" as="geometry" />
        </mxCell>
        <mxCell id="Nq8rvVR_f5ThodNihjhF-34" value="" style="endArrow=classic;html=1;rounded=0;entryX=0;entryY=0.5;entryDx=0;entryDy=0;exitX=1;exitY=0.5;exitDx=0;exitDy=0;" edge="1" parent="gCvPAoLcpIH9JKcBM7v3-2" source="Nq8rvVR_f5ThodNihjhF-13" target="Nq8rvVR_f5ThodNihjhF-33">
          <mxGeometry width="50" height="50" relative="1" as="geometry">
            <mxPoint x="1590" y="210" as="sourcePoint" />
            <mxPoint x="1640" y="160" as="targetPoint" />
          </mxGeometry>
        </mxCell>
        <mxCell id="Nq8rvVR_f5ThodNihjhF-37" value="See Task stats" style="rounded=0;whiteSpace=wrap;html=1;" vertex="1" parent="gCvPAoLcpIH9JKcBM7v3-2">
          <mxGeometry x="1860" y="50" width="70" height="40" as="geometry" />
        </mxCell>
        <mxCell id="Nq8rvVR_f5ThodNihjhF-38" value="Edit Task fields" style="rounded=0;whiteSpace=wrap;html=1;" vertex="1" parent="gCvPAoLcpIH9JKcBM7v3-2">
          <mxGeometry x="2070" y="50" width="70" height="40" as="geometry" />
        </mxCell>
        <mxCell id="Nq8rvVR_f5ThodNihjhF-39" value="Delete Task" style="rounded=0;whiteSpace=wrap;html=1;" vertex="1" parent="gCvPAoLcpIH9JKcBM7v3-2">
          <mxGeometry x="1860" y="170" width="70" height="40" as="geometry" />
        </mxCell>
        <mxCell id="Nq8rvVR_f5ThodNihjhF-73" value="Create Task" style="rounded=0;whiteSpace=wrap;html=1;" vertex="1" parent="gCvPAoLcpIH9JKcBM7v3-2">
          <mxGeometry x="1860" y="120" width="70" height="40" as="geometry" />
        </mxCell>
        <mxCell id="Nq8rvVR_f5ThodNihjhF-74" value="" style="endArrow=classic;html=1;rounded=0;entryX=0;entryY=0.5;entryDx=0;entryDy=0;exitX=0.5;exitY=0;exitDx=0;exitDy=0;" edge="1" parent="gCvPAoLcpIH9JKcBM7v3-2" source="Nq8rvVR_f5ThodNihjhF-33" target="Nq8rvVR_f5ThodNihjhF-37">
          <mxGeometry width="50" height="50" relative="1" as="geometry">
            <mxPoint x="1760" y="210" as="sourcePoint" />
            <mxPoint x="1810" y="160" as="targetPoint" />
            <Array as="points">
              <mxPoint x="1800" y="70" />
            </Array>
          </mxGeometry>
        </mxCell>
        <mxCell id="Nq8rvVR_f5ThodNihjhF-76" value="&lt;font style=&quot;font-size: 18px;&quot;&gt;&lt;b&gt;X&lt;/b&gt;&lt;/font&gt;" style="rhombus;whiteSpace=wrap;html=1;" vertex="1" parent="gCvPAoLcpIH9JKcBM7v3-2">
          <mxGeometry x="1980" y="50" width="40" height="40" as="geometry" />
        </mxCell>
        <mxCell id="Nq8rvVR_f5ThodNihjhF-77" value="" style="endArrow=classic;html=1;rounded=0;entryX=0;entryY=0.5;entryDx=0;entryDy=0;exitX=1;exitY=0.5;exitDx=0;exitDy=0;" edge="1" parent="gCvPAoLcpIH9JKcBM7v3-2" source="Nq8rvVR_f5ThodNihjhF-37" target="Nq8rvVR_f5ThodNihjhF-76">
          <mxGeometry width="50" height="50" relative="1" as="geometry">
            <mxPoint x="1820" y="220" as="sourcePoint" />
            <mxPoint x="1870" y="170" as="targetPoint" />
          </mxGeometry>
        </mxCell>
        <mxCell id="Nq8rvVR_f5ThodNihjhF-78" value="" style="endArrow=classic;html=1;rounded=0;entryX=0;entryY=0.5;entryDx=0;entryDy=0;exitX=1;exitY=0.5;exitDx=0;exitDy=0;" edge="1" parent="gCvPAoLcpIH9JKcBM7v3-2" source="Nq8rvVR_f5ThodNihjhF-76" target="Nq8rvVR_f5ThodNihjhF-38">
          <mxGeometry width="50" height="50" relative="1" as="geometry">
            <mxPoint x="1940" y="80" as="sourcePoint" />
            <mxPoint x="1990" y="80" as="targetPoint" />
          </mxGeometry>
        </mxCell>
        <mxCell id="Nq8rvVR_f5ThodNihjhF-85" value="" style="endArrow=classic;html=1;rounded=0;exitX=0.5;exitY=1;exitDx=0;exitDy=0;entryX=0;entryY=0.5;entryDx=0;entryDy=0;" edge="1" parent="gCvPAoLcpIH9JKcBM7v3-2" source="Nq8rvVR_f5ThodNihjhF-33" target="Nq8rvVR_f5ThodNihjhF-39">
          <mxGeometry width="50" height="50" relative="1" as="geometry">
            <mxPoint x="1850" y="290" as="sourcePoint" />
            <mxPoint x="1900" y="240" as="targetPoint" />
            <Array as="points">
              <mxPoint x="1800" y="190" />
            </Array>
          </mxGeometry>
        </mxCell>
        <mxCell id="Nq8rvVR_f5ThodNihjhF-86" value="" style="endArrow=classic;html=1;rounded=0;exitX=1;exitY=1;exitDx=0;exitDy=0;entryX=0;entryY=0.5;entryDx=0;entryDy=0;" edge="1" parent="gCvPAoLcpIH9JKcBM7v3-2" source="Nq8rvVR_f5ThodNihjhF-33" target="Nq8rvVR_f5ThodNihjhF-73">
          <mxGeometry width="50" height="50" relative="1" as="geometry">
            <mxPoint x="1850" y="290" as="sourcePoint" />
            <mxPoint x="1900" y="240" as="targetPoint" />
            <Array as="points">
              <mxPoint x="1810" y="140" />
            </Array>
          </mxGeometry>
        </mxCell>
        <mxCell id="Nq8rvVR_f5ThodNihjhF-95" value="" style="endArrow=none;html=1;rounded=0;exitX=1.007;exitY=0.54;exitDx=0;exitDy=0;exitPerimeter=0;" edge="1" parent="gCvPAoLcpIH9JKcBM7v3-2">
          <mxGeometry width="50" height="50" relative="1" as="geometry">
            <mxPoint x="1930" y="189.88" as="sourcePoint" />
            <mxPoint x="2100" y="190" as="targetPoint" />
          </mxGeometry>
        </mxCell>
        <mxCell id="gCvPAoLcpIH9JKcBM7v3-3" value="API" style="swimlane;startSize=20;horizontal=0;html=1;" parent="gCvPAoLcpIH9JKcBM7v3-1" vertex="1">
          <mxGeometry y="340" width="2170" height="160" as="geometry" />
        </mxCell>
        <mxCell id="gCvPAoLcpIH9JKcBM7v3-16" value="Validate Data" style="rounded=0;whiteSpace=wrap;html=1;" parent="gCvPAoLcpIH9JKcBM7v3-3" vertex="1">
          <mxGeometry x="180" y="30" width="70" height="40" as="geometry" />
        </mxCell>
        <mxCell id="gCvPAoLcpIH9JKcBM7v3-19" value="Authenticate User" style="rounded=0;whiteSpace=wrap;html=1;" parent="gCvPAoLcpIH9JKcBM7v3-3" vertex="1">
          <mxGeometry x="560" y="30" width="70" height="40" as="geometry" />
        </mxCell>
        <mxCell id="gCvPAoLcpIH9JKcBM7v3-21" value="&lt;font style=&quot;font-size: 18px;&quot;&gt;&lt;b&gt;X&lt;/b&gt;&lt;/font&gt;" style="rhombus;whiteSpace=wrap;html=1;" parent="gCvPAoLcpIH9JKcBM7v3-3" vertex="1">
          <mxGeometry x="290" y="30" width="40" height="40" as="geometry" />
        </mxCell>
        <mxCell id="gCvPAoLcpIH9JKcBM7v3-22" value="" style="endArrow=classic;html=1;rounded=0;exitX=1;exitY=0.5;exitDx=0;exitDy=0;" parent="gCvPAoLcpIH9JKcBM7v3-3" source="gCvPAoLcpIH9JKcBM7v3-16" target="gCvPAoLcpIH9JKcBM7v3-21" edge="1">
          <mxGeometry width="50" height="50" relative="1" as="geometry">
            <mxPoint x="320" y="-10" as="sourcePoint" />
            <mxPoint x="370" y="-60" as="targetPoint" />
          </mxGeometry>
        </mxCell>
        <mxCell id="gCvPAoLcpIH9JKcBM7v3-25" value="Yes" style="text;html=1;align=center;verticalAlign=middle;resizable=0;points=[];autosize=1;strokeColor=none;fillColor=none;" parent="gCvPAoLcpIH9JKcBM7v3-3" vertex="1">
          <mxGeometry x="320" y="20" width="40" height="30" as="geometry" />
        </mxCell>
        <mxCell id="gCvPAoLcpIH9JKcBM7v3-26" value="No" style="text;html=1;align=center;verticalAlign=middle;resizable=0;points=[];autosize=1;strokeColor=none;fillColor=none;" parent="gCvPAoLcpIH9JKcBM7v3-3" vertex="1">
          <mxGeometry x="270" y="70" width="40" height="30" as="geometry" />
        </mxCell>
        <mxCell id="gCvPAoLcpIH9JKcBM7v3-29" value="&lt;font style=&quot;font-size: 18px;&quot;&gt;&lt;b&gt;X&lt;/b&gt;&lt;/font&gt;" style="rhombus;whiteSpace=wrap;html=1;" parent="gCvPAoLcpIH9JKcBM7v3-3" vertex="1">
          <mxGeometry x="720" y="30" width="40" height="40" as="geometry" />
        </mxCell>
        <mxCell id="gCvPAoLcpIH9JKcBM7v3-33" value="Generate JWT" style="rounded=0;whiteSpace=wrap;html=1;" parent="gCvPAoLcpIH9JKcBM7v3-3" vertex="1">
          <mxGeometry x="830" y="30" width="70" height="40" as="geometry" />
        </mxCell>
        <mxCell id="gCvPAoLcpIH9JKcBM7v3-34" value="" style="endArrow=classic;html=1;rounded=0;exitX=1;exitY=0.5;exitDx=0;exitDy=0;entryX=0;entryY=0.5;entryDx=0;entryDy=0;" parent="gCvPAoLcpIH9JKcBM7v3-3" source="gCvPAoLcpIH9JKcBM7v3-29" target="gCvPAoLcpIH9JKcBM7v3-33" edge="1">
          <mxGeometry width="50" height="50" relative="1" as="geometry">
            <mxPoint x="590" y="60" as="sourcePoint" />
            <mxPoint x="640" y="10" as="targetPoint" />
          </mxGeometry>
        </mxCell>
        <mxCell id="gCvPAoLcpIH9JKcBM7v3-36" value="Insert Data in DB" style="rounded=0;whiteSpace=wrap;html=1;" parent="gCvPAoLcpIH9JKcBM7v3-3" vertex="1">
          <mxGeometry x="380" y="30" width="70" height="40" as="geometry" />
        </mxCell>
        <mxCell id="gCvPAoLcpIH9JKcBM7v3-37" value="" style="endArrow=classic;html=1;rounded=0;exitX=1;exitY=0.5;exitDx=0;exitDy=0;entryX=0;entryY=0.5;entryDx=0;entryDy=0;" parent="gCvPAoLcpIH9JKcBM7v3-3" source="gCvPAoLcpIH9JKcBM7v3-21" target="gCvPAoLcpIH9JKcBM7v3-36" edge="1">
          <mxGeometry width="50" height="50" relative="1" as="geometry">
            <mxPoint x="520" y="80" as="sourcePoint" />
            <mxPoint x="570" y="30" as="targetPoint" />
          </mxGeometry>
        </mxCell>
        <mxCell id="gCvPAoLcpIH9JKcBM7v3-38" value="" style="endArrow=classic;html=1;rounded=0;exitX=1;exitY=0.5;exitDx=0;exitDy=0;entryX=0;entryY=0.5;entryDx=0;entryDy=0;" parent="gCvPAoLcpIH9JKcBM7v3-3" source="gCvPAoLcpIH9JKcBM7v3-19" target="gCvPAoLcpIH9JKcBM7v3-29" edge="1">
          <mxGeometry width="50" height="50" relative="1" as="geometry">
            <mxPoint x="620" y="90" as="sourcePoint" />
            <mxPoint x="670" y="40" as="targetPoint" />
          </mxGeometry>
        </mxCell>
        <mxCell id="gCvPAoLcpIH9JKcBM7v3-51" value="Yes" style="text;html=1;align=center;verticalAlign=middle;resizable=0;points=[];autosize=1;strokeColor=none;fillColor=none;" parent="gCvPAoLcpIH9JKcBM7v3-3" vertex="1">
          <mxGeometry x="760" y="20" width="40" height="30" as="geometry" />
        </mxCell>
        <mxCell id="gCvPAoLcpIH9JKcBM7v3-52" value="No" style="text;html=1;align=center;verticalAlign=middle;resizable=0;points=[];autosize=1;strokeColor=none;fillColor=none;" parent="gCvPAoLcpIH9JKcBM7v3-3" vertex="1">
          <mxGeometry x="700" y="80" width="40" height="30" as="geometry" />
        </mxCell>
        <mxCell id="Nq8rvVR_f5ThodNihjhF-5" value="Register a new Child" style="rounded=0;whiteSpace=wrap;html=1;" vertex="1" parent="gCvPAoLcpIH9JKcBM7v3-3">
          <mxGeometry x="1300" y="70" width="60" height="40" as="geometry" />
        </mxCell>
        <mxCell id="Nq8rvVR_f5ThodNihjhF-8" value="Get Child info*" style="rounded=0;whiteSpace=wrap;html=1;" vertex="1" parent="gCvPAoLcpIH9JKcBM7v3-3">
          <mxGeometry x="1390" y="70" width="60" height="40" as="geometry" />
        </mxCell>
        <mxCell id="Nq8rvVR_f5ThodNihjhF-21" value="Save changes" style="rounded=0;whiteSpace=wrap;html=1;" vertex="1" parent="gCvPAoLcpIH9JKcBM7v3-3">
          <mxGeometry x="1570" y="65" width="70" height="40" as="geometry" />
        </mxCell>
        <mxCell id="Nq8rvVR_f5ThodNihjhF-29" value="&lt;div&gt;Delete Child &lt;br&gt;&lt;/div&gt;&lt;div&gt;from DB&lt;br&gt;&lt;/div&gt;" style="rounded=0;whiteSpace=wrap;html=1;" vertex="1" parent="gCvPAoLcpIH9JKcBM7v3-3">
          <mxGeometry x="1670" y="65" width="70" height="40" as="geometry" />
        </mxCell>
        <mxCell id="Nq8rvVR_f5ThodNihjhF-81" value="Save changes" style="rounded=0;whiteSpace=wrap;html=1;" vertex="1" parent="gCvPAoLcpIH9JKcBM7v3-3">
          <mxGeometry x="2070" y="65" width="70" height="40" as="geometry" />
        </mxCell>
        <mxCell id="gCvPAoLcpIH9JKcBM7v3-4" value="Children" style="swimlane;startSize=20;horizontal=0;html=1;" parent="gCvPAoLcpIH9JKcBM7v3-1" vertex="1">
          <mxGeometry y="500" width="2170" height="200" as="geometry" />
        </mxCell>
        <mxCell id="gCvPAoLcpIH9JKcBM7v3-17" value="" style="endArrow=classic;html=1;rounded=0;exitX=0.5;exitY=1;exitDx=0;exitDy=0;entryX=0.5;entryY=0;entryDx=0;entryDy=0;" parent="gCvPAoLcpIH9JKcBM7v3-1" source="gCvPAoLcpIH9JKcBM7v3-12" target="gCvPAoLcpIH9JKcBM7v3-16" edge="1">
          <mxGeometry width="50" height="50" relative="1" as="geometry">
            <mxPoint x="260" y="320" as="sourcePoint" />
            <mxPoint x="310" y="270" as="targetPoint" />
          </mxGeometry>
        </mxCell>
        <mxCell id="gCvPAoLcpIH9JKcBM7v3-23" value="" style="endArrow=classic;html=1;rounded=0;entryX=0.5;entryY=1;entryDx=0;entryDy=0;exitX=0.5;exitY=0;exitDx=0;exitDy=0;" parent="gCvPAoLcpIH9JKcBM7v3-1" source="gCvPAoLcpIH9JKcBM7v3-36" target="gCvPAoLcpIH9JKcBM7v3-11" edge="1">
          <mxGeometry width="50" height="50" relative="1" as="geometry">
            <mxPoint x="350" y="200" as="sourcePoint" />
            <mxPoint x="370" y="210" as="targetPoint" />
            <Array as="points">
              <mxPoint x="415" y="150" />
              <mxPoint x="215" y="150" />
            </Array>
          </mxGeometry>
        </mxCell>
        <mxCell id="gCvPAoLcpIH9JKcBM7v3-28" value="" style="endArrow=classic;html=1;rounded=0;exitX=1;exitY=0.5;exitDx=0;exitDy=0;entryX=0.5;entryY=0;entryDx=0;entryDy=0;" parent="gCvPAoLcpIH9JKcBM7v3-1" source="gCvPAoLcpIH9JKcBM7v3-11" target="gCvPAoLcpIH9JKcBM7v3-19" edge="1">
          <mxGeometry width="50" height="50" relative="1" as="geometry">
            <mxPoint x="360" y="250" as="sourcePoint" />
            <mxPoint x="410" y="200" as="targetPoint" />
            <Array as="points">
              <mxPoint x="595" y="100" />
            </Array>
          </mxGeometry>
        </mxCell>
        <mxCell id="gCvPAoLcpIH9JKcBM7v3-40" value="" style="endArrow=classic;html=1;rounded=0;exitX=1;exitY=0.5;exitDx=0;exitDy=0;entryX=0.5;entryY=1;entryDx=0;entryDy=0;" parent="gCvPAoLcpIH9JKcBM7v3-1" source="gCvPAoLcpIH9JKcBM7v3-33" target="gCvPAoLcpIH9JKcBM7v3-35" edge="1">
          <mxGeometry width="50" height="50" relative="1" as="geometry">
            <mxPoint x="580" y="380" as="sourcePoint" />
            <mxPoint x="630" y="330" as="targetPoint" />
            <Array as="points">
              <mxPoint x="940" y="390" />
            </Array>
          </mxGeometry>
        </mxCell>
        <mxCell id="Nq8rvVR_f5ThodNihjhF-4" value="" style="endArrow=classic;html=1;rounded=0;exitX=1;exitY=0.5;exitDx=0;exitDy=0;entryX=0.5;entryY=0;entryDx=0;entryDy=0;" edge="1" parent="gCvPAoLcpIH9JKcBM7v3-1" source="gCvPAoLcpIH9JKcBM7v3-53" target="Nq8rvVR_f5ThodNihjhF-5">
          <mxGeometry width="50" height="50" relative="1" as="geometry">
            <mxPoint x="1440" y="290" as="sourcePoint" />
            <mxPoint x="1330" y="390" as="targetPoint" />
            <Array as="points">
              <mxPoint x="1330" y="70" />
            </Array>
          </mxGeometry>
        </mxCell>
        <mxCell id="Nq8rvVR_f5ThodNihjhF-7" value="" style="endArrow=classic;html=1;rounded=0;exitX=1;exitY=0.5;exitDx=0;exitDy=0;entryX=0.5;entryY=0;entryDx=0;entryDy=0;" edge="1" parent="gCvPAoLcpIH9JKcBM7v3-1" source="gCvPAoLcpIH9JKcBM7v3-46" target="Nq8rvVR_f5ThodNihjhF-8">
          <mxGeometry width="50" height="50" relative="1" as="geometry">
            <mxPoint x="1300" y="290" as="sourcePoint" />
            <mxPoint x="1410" y="380" as="targetPoint" />
            <Array as="points">
              <mxPoint x="1420" y="130" />
            </Array>
          </mxGeometry>
        </mxCell>
        <mxCell id="Nq8rvVR_f5ThodNihjhF-10" value="" style="endArrow=classic;html=1;rounded=0;exitX=1;exitY=0.5;exitDx=0;exitDy=0;entryX=0.5;entryY=1;entryDx=0;entryDy=0;" edge="1" parent="gCvPAoLcpIH9JKcBM7v3-1" source="Nq8rvVR_f5ThodNihjhF-8" target="Nq8rvVR_f5ThodNihjhF-9">
          <mxGeometry width="50" height="50" relative="1" as="geometry">
            <mxPoint x="1510" y="360" as="sourcePoint" />
            <mxPoint x="1560" y="310" as="targetPoint" />
            <Array as="points">
              <mxPoint x="1520" y="430" />
            </Array>
          </mxGeometry>
        </mxCell>
        <mxCell id="Nq8rvVR_f5ThodNihjhF-24" value="" style="endArrow=classic;html=1;rounded=0;exitX=0.25;exitY=0;exitDx=0;exitDy=0;entryX=1;entryY=0.5;entryDx=0;entryDy=0;" edge="1" parent="gCvPAoLcpIH9JKcBM7v3-1" source="Nq8rvVR_f5ThodNihjhF-21" target="Nq8rvVR_f5ThodNihjhF-9">
          <mxGeometry width="50" height="50" relative="1" as="geometry">
            <mxPoint x="1500" y="360" as="sourcePoint" />
            <mxPoint x="1550" y="310" as="targetPoint" />
            <Array as="points">
              <mxPoint x="1588" y="300" />
            </Array>
          </mxGeometry>
        </mxCell>
        <mxCell id="Nq8rvVR_f5ThodNihjhF-27" value="" style="endArrow=classic;html=1;rounded=0;entryX=0.569;entryY=0.004;entryDx=0;entryDy=0;entryPerimeter=0;" edge="1" parent="gCvPAoLcpIH9JKcBM7v3-1" target="Nq8rvVR_f5ThodNihjhF-21">
          <mxGeometry width="50" height="50" relative="1" as="geometry">
            <mxPoint x="1610" y="270" as="sourcePoint" />
            <mxPoint x="1613" y="410" as="targetPoint" />
          </mxGeometry>
        </mxCell>
        <mxCell id="Nq8rvVR_f5ThodNihjhF-31" value="" style="endArrow=classic;html=1;rounded=0;entryX=0.5;entryY=0;entryDx=0;entryDy=0;exitX=1;exitY=0.5;exitDx=0;exitDy=0;" edge="1" parent="gCvPAoLcpIH9JKcBM7v3-1" source="Nq8rvVR_f5ThodNihjhF-28" target="Nq8rvVR_f5ThodNihjhF-29">
          <mxGeometry width="50" height="50" relative="1" as="geometry">
            <mxPoint x="1440" y="310" as="sourcePoint" />
            <mxPoint x="1490" y="260" as="targetPoint" />
            <Array as="points">
              <mxPoint x="1705" y="190" />
            </Array>
          </mxGeometry>
        </mxCell>
        <mxCell id="Nq8rvVR_f5ThodNihjhF-90" value="" style="endArrow=classic;html=1;rounded=0;exitX=0.417;exitY=0.98;exitDx=0;exitDy=0;exitPerimeter=0;entryX=0.431;entryY=0.01;entryDx=0;entryDy=0;entryPerimeter=0;" edge="1" parent="gCvPAoLcpIH9JKcBM7v3-1" source="Nq8rvVR_f5ThodNihjhF-38" target="Nq8rvVR_f5ThodNihjhF-81">
          <mxGeometry width="50" height="50" relative="1" as="geometry">
            <mxPoint x="1910" y="300" as="sourcePoint" />
            <mxPoint x="1960" y="250" as="targetPoint" />
          </mxGeometry>
        </mxCell>
        <mxCell id="gCvPAoLcpIH9JKcBM7v3-24" value="" style="endArrow=none;html=1;rounded=0;exitX=0.5;exitY=1;exitDx=0;exitDy=0;" parent="1" source="gCvPAoLcpIH9JKcBM7v3-21" edge="1">
          <mxGeometry width="50" height="50" relative="1" as="geometry">
            <mxPoint x="470" y="520" as="sourcePoint" />
            <mxPoint x="280" y="270" as="targetPoint" />
            <Array as="points">
              <mxPoint x="490" y="560" />
              <mxPoint x="280" y="560" />
            </Array>
          </mxGeometry>
        </mxCell>
        <mxCell id="gCvPAoLcpIH9JKcBM7v3-31" value="" style="endArrow=none;html=1;rounded=0;entryX=0.5;entryY=1;entryDx=0;entryDy=0;" parent="1" target="gCvPAoLcpIH9JKcBM7v3-29" edge="1">
          <mxGeometry width="50" height="50" relative="1" as="geometry">
            <mxPoint x="490" y="560" as="sourcePoint" />
            <mxPoint x="610" y="410" as="targetPoint" />
            <Array as="points">
              <mxPoint x="920" y="560" />
            </Array>
          </mxGeometry>
        </mxCell>
        <mxCell id="Nq8rvVR_f5ThodNihjhF-6" value="" style="endArrow=none;html=1;rounded=0;exitX=0;exitY=0.5;exitDx=0;exitDy=0;" edge="1" parent="1" source="Nq8rvVR_f5ThodNihjhF-5">
          <mxGeometry width="50" height="50" relative="1" as="geometry">
            <mxPoint x="1360" y="470" as="sourcePoint" />
            <mxPoint x="1260" y="270" as="targetPoint" />
            <Array as="points">
              <mxPoint x="1260" y="540" />
            </Array>
          </mxGeometry>
        </mxCell>
        <mxCell id="Nq8rvVR_f5ThodNihjhF-11" value="" style="endArrow=none;html=1;rounded=0;entryX=0;entryY=0.5;entryDx=0;entryDy=0;startArrow=none;startFill=0;" edge="1" parent="1" target="Nq8rvVR_f5ThodNihjhF-9">
          <mxGeometry width="50" height="50" relative="1" as="geometry">
            <mxPoint x="1260" y="410" as="sourcePoint" />
            <mxPoint x="1500" y="380" as="targetPoint" />
          </mxGeometry>
        </mxCell>
        <mxCell id="Nq8rvVR_f5ThodNihjhF-32" value="" style="endArrow=none;html=1;rounded=0;entryX=0.5;entryY=1;entryDx=0;entryDy=0;" edge="1" parent="1" target="Nq8rvVR_f5ThodNihjhF-29">
          <mxGeometry width="50" height="50" relative="1" as="geometry">
            <mxPoint x="1260" y="540" as="sourcePoint" />
            <mxPoint x="1590" y="450" as="targetPoint" />
            <Array as="points">
              <mxPoint x="1260" y="580" />
              <mxPoint x="1885" y="580" />
            </Array>
          </mxGeometry>
        </mxCell>
        <mxCell id="Nq8rvVR_f5ThodNihjhF-80" value="" style="endArrow=none;html=1;rounded=0;exitX=0.5;exitY=0;exitDx=0;exitDy=0;" edge="1" parent="1" source="Nq8rvVR_f5ThodNihjhF-76">
          <mxGeometry width="50" height="50" relative="1" as="geometry">
            <mxPoint x="1900" y="360" as="sourcePoint" />
            <mxPoint x="1920" y="240" as="targetPoint" />
            <Array as="points">
              <mxPoint x="2180" y="160" />
              <mxPoint x="1920" y="160" />
            </Array>
          </mxGeometry>
        </mxCell>
        <mxCell id="Nq8rvVR_f5ThodNihjhF-83" value="" style="endArrow=none;html=1;rounded=0;entryX=0;entryY=0.5;entryDx=0;entryDy=0;" edge="1" parent="1" target="Nq8rvVR_f5ThodNihjhF-81">
          <mxGeometry width="50" height="50" relative="1" as="geometry">
            <mxPoint x="1940" y="240" as="sourcePoint" />
            <mxPoint x="2000" y="370" as="targetPoint" />
            <Array as="points">
              <mxPoint x="1940" y="535" />
            </Array>
          </mxGeometry>
        </mxCell>
        <mxCell id="Nq8rvVR_f5ThodNihjhF-94" value="" style="endArrow=none;html=1;rounded=0;exitX=1.007;exitY=0.54;exitDx=0;exitDy=0;exitPerimeter=0;" edge="1" parent="1" source="Nq8rvVR_f5ThodNihjhF-73">
          <mxGeometry width="50" height="50" relative="1" as="geometry">
            <mxPoint x="2140" y="320" as="sourcePoint" />
            <mxPoint x="2280" y="272" as="targetPoint" />
          </mxGeometry>
        </mxCell>
      </root>
    </mxGraphModel>
  </diagram>
</mxfile>
